<svg xmlns="http://www.w3.org/2000/svg" viewBox="0 0 800 420">
  <defs>
    <linearGradient id="g3" x1="0%" y1="0%" x2="100%" y2="100%">
      <stop offset="0%" stop-color="#0d1117"/>
      <stop offset="100%" stop-color="#161b22"/>
    </linearGradient>
    <linearGradient id="g4" x1="0%" y1="0%" x2="100%" y2="0%">
      <stop offset="0%" stop-color="#4f8ef7"/>
      <stop offset="100%" stop-color="#7c5cfc"/>
    </linearGradient>
  </defs>
  <rect width="800" height="420" fill="url(#g3)"/>
  <!-- nav -->
  <rect x="0" y="0" width="800" height="52" fill="#161b22"/>
  <rect x="20" y="18" width="80" height="16" rx="8" fill="#4f8ef7"/>
  <rect x="200" y="20" width="50" height="12" rx="6" fill="#21262d"/>
  <rect x="262" y="20" width="50" height="12" rx="6" fill="#21262d"/>
  <rect x="324" y="20" width="50" height="12" rx="6" fill="#21262d"/>
  <rect x="650" y="14" width="130" height="24" rx="6" fill="#21262d" stroke="#30363d" stroke-width="1"/>
  <rect x="658" y="20" width="12" height="12" rx="3" fill="#30363d"/>
  <rect x="676" y="23" width="90" height="6" rx="3" fill="#30363d"/>
  <!-- category chips -->
  <rect x="20" y="70" width="80" height="28" rx="14" fill="url(#g4)"/>
  <rect x="110" y="70" width="80" height="28" rx="14" fill="#21262d" stroke="#30363d" stroke-width="1"/>
  <rect x="200" y="70" width="80" height="28" rx="14" fill="#21262d" stroke="#30363d" stroke-width="1"/>
  <rect x="290" y="70" width="80" height="28" rx="14" fill="#21262d" stroke="#30363d" stroke-width="1"/>
  <rect x="380" y="70" width="80" height="28" rx="14" fill="#21262d" stroke="#30363d" stroke-width="1"/>
  <!-- article cards -->
  <rect x="20" y="116" width="370" height="200" rx="10" fill="#161b22" stroke="#30363d" stroke-width="1"/>
  <rect x="20" y="116" width="370" height="110" rx="10" fill="#21262d"/>
  <rect x="30" y="238" width="200" height="14" rx="4" fill="#f0f4ff"/>
  <rect x="30" y="260" width="330" height="8" rx="3" fill="#30363d"/>
  <rect x="30" y="274" width="280" height="8" rx="3" fill="#30363d"/>
  <rect x="30" y="296" width="80" height="8" rx="3" fill="#4f8ef7"/>
  <rect x="406" y="116" width="180" height="90" rx="10" fill="#161b22" stroke="#30363d" stroke-width="1"/>
  <rect x="406" y="116" width="180" height="44" rx="10" fill="#21262d"/>
  <rect x="414" y="170" width="120" height="8" rx="3" fill="#f0f4ff"/>
  <rect x="414" y="184" width="160" height="6" rx="3" fill="#30363d"/>
  <rect x="406" y="216" width="180" height="90" rx="10" fill="#161b22" stroke="#30363d" stroke-width="1"/>
  <rect x="406" y="216" width="180" height="44" rx="10" fill="#21262d"/>
  <rect x="414" y="270" width="120" height="8" rx="3" fill="#f0f4ff"/>
  <rect x="414" y="284" width="160" height="6" rx="3" fill="#30363d"/>
  <rect x="596" y="116" width="180" height="90" rx="10" fill="#161b22" stroke="#30363d" stroke-width="1"/>
  <rect x="596" y="116" width="180" height="44" rx="10" fill="#21262d"/>
  <rect x="604" y="170" width="120" height="8" rx="3" fill="#f0f4ff"/>
  <rect x="604" y="184" width="160" height="6" rx="3" fill="#30363d"/>
  <rect x="596" y="216" width="180" height="90" rx="10" fill="#161b22" stroke="#30363d" stroke-width="1"/>
  <rect x="596" y="216" width="180" height="44" rx="10" fill="#21262d"/>
  <rect x="604" y="270" width="120" height="8" rx="3" fill="#f0f4ff"/>
  <rect x="604" y="284" width="160" height="6" rx="3" fill="#30363d"/>
  <!-- scroll indicator -->
  <text x="370" y="348" font-family="monospace" font-size="12" fill="#30363d" text-anchor="middle">↓ infinite scroll</text>
  <!-- label -->
  <rect x="0" y="370" width="800" height="50" fill="#0d1117"/>
  <text x="40" y="401" font-family="monospace" font-size="13" fill="#4f8ef7">📰  News Reader Web App</text>
  <text x="600" y="401" font-family="monospace" font-size="11" fill="#30363d">React.js + News API</text>
</svg>
