<svg xmlns="http://www.w3.org/2000/svg" viewBox="0 0 128 128">
  <rect width="128" height="128" fill="#F0DB4F"/>
  <path fill="#323330" d="M112 102c-2-8-8-14-22-20-4-2-8-3-9-6 0-2 0-3 1-4 2-4 6-4 9-3 2 1 4 3 5 5l9-6c-2-3-3-5-5-6-4-4-9-5-17-5h-4c-4 1-8 3-10 6-6 7-5 18 3 23 7 5 18 6 19 11 1 5-4 7-9 7-4-1-7-4-9-7L64 103c1 2 3 4 4 6 9 9 32 8 36-5l-.6-5.3zM70 60H58l-.1 30c0 6 .3 12-.7 14-1.7 3.6-6.2 3.1-8.2 2.4-2-.9-3.1-2.5-4.3-4.5l-.7-1-9.5 5.8c1.6 3.2 3.9 6 6.9 7.9 4.5 2.7 10.5 3.5 16.7 2.1 4.1-1.2 7.6-3.7 9.5-7.4 2.7-4.9 2.1-10.9 2.1-17.4V60z"/>
</svg>
