<svg xmlns="http://www.w3.org/2000/svg" viewBox="0 0 128 128">
  <defs>
    <linearGradient id="pyb" x1="0%" y1="0%" x2="100%" y2="100%">
      <stop offset="0%" stop-color="#5A9FD4"/>
      <stop offset="100%" stop-color="#306998"/>
    </linearGradient>
    <linearGradient id="pyy" x1="0%" y1="0%" x2="100%" y2="100%">
      <stop offset="0%" stop-color="#FFD43B"/>
      <stop offset="100%" stop-color="#FFE873"/>
    </linearGradient>
  </defs>
  <path fill="url(#pyb)" d="M63 8c-18 0-22 8-22 16v10h26v4H28c-10 0-18 6-18 20s8 20 18 20h10V68c0-12 10-20 22-20h24c10 0 18-8 18-18V26c0-10-8-18-22-18H63zm-4 10a4 4 0 1 1 0 8 4 4 0 0 1 0-8z"/>
  <path fill="url(#pyy)" d="M65 120c18 0 22-8 22-16V94H61v-4h38c10 0 18-6 18-20s-8-20-18-20H89v10c0 12-10 20-22 20H43c-10 0-18 8-18 18v16c0 10 8 18 22 18h18zm4-10a4 4 0 1 1 0-8 4 4 0 0 1 0 8z"/>
</svg>
